<svg xmlns="http://www.w3.org/2000/svg" version="1.1" xmlns:xlink="http://www.w3.org/1999/xlink" xmlns:svgjs="http://svgjs.dev/svgjs" width="1500" height="1500" viewBox="0 0 1500 1500"><rect width="1500" height="1500" fill="#ffffff"></rect><g transform="matrix(0.6666666666666666,0,0,0.6666666666666666,249.39393939393938,438.5856950067477)"><svg viewBox="0 0 396 247" data-background-color="#ffffff" preserveAspectRatio="xMidYMid meet" height="935" width="1500" xmlns="http://www.w3.org/2000/svg" xmlns:xlink="http://www.w3.org/1999/xlink"><g id="tight-bounds" transform="matrix(1,0,0,1,0.2400000000000091,-0.09999999999999432)"><svg viewBox="0 0 395.52 247.2" height="247.2" width="395.52"><g><svg></svg></g><g><svg viewBox="0 0 395.52 247.2" height="247.2" width="395.52"><mask id="ce5d2dc2-3396-4e69-bb52-3765bd3fd289"><rect width="640" height="400" fill="white"></rect><g transform="matrix(1,0,0,1,39.55199999999999,75.89383591820618)"><svg viewBox="0 0 316.416 95.41232816358765" height="95.41232816358765" width="316.416"><g><svg viewBox="0 0 316.416 95.41232816358765" height="95.41232816358765" width="316.416"><g><svg viewBox="0 0 316.416 95.41232816358765" height="95.41232816358765" width="316.416"><g><svg viewBox="0 0 316.416 95.41232816358765" height="95.41232816358765" width="316.416"><g id="SvgjsG1306"><svg viewBox="0 0 316.416 95.41232816358765" height="95.41232816358765" width="316.416" id="SvgjsSvg1305"><g><svg viewBox="0 0 316.416 64.95292883097522" height="64.95292883097522" width="316.416"><g transform="matrix(1,0,0,1,0,0)"><svg width="316.416" viewBox="-1 -41.7 221.1 46.190000000000005" height="64.95292883097522" data-palette-color="#000000"><path d="M37.99-35.01L37.99-10.01Q37.99-7.84 37.17-5.92 36.35-4 34.92-2.58 33.5-1.15 31.58-0.33 29.66 0.49 27.49 0.49L27.49 0.49Q25.54 0.49 23.74-0.2 21.95-0.88 20.51-2.2L20.51-2.2Q19.07-0.88 17.26-0.2 15.45 0.49 13.5 0.49L13.5 0.49Q11.33 0.49 9.41-0.33 7.5-1.15 6.07-2.58 4.64-4 3.82-5.92 3-7.84 3-10.01L3-10.01 3-35.01 10.01-35.01 10.01-10.01Q10.01-9.28 10.28-8.63 10.55-7.98 11.02-7.51 11.5-7.03 12.13-6.76 12.77-6.49 13.5-6.49L13.5-6.49Q14.23-6.49 14.87-6.76 15.5-7.03 15.98-7.51 16.46-7.98 16.72-8.63 16.99-9.28 16.99-10.01L16.99-10.01 16.99-35.01 24-35.01 24-10.01Q24-9.28 24.27-8.63 24.54-7.98 25.01-7.51 25.49-7.03 26.12-6.76 26.76-6.49 27.49-6.49L27.49-6.49Q28.22-6.49 28.86-6.76 29.49-7.03 29.97-7.51 30.44-7.98 30.73-8.63 31.01-9.28 31.01-10.01L31.01-10.01 31.01-35.01 37.99-35.01ZM68.5-26.1L68.5 0 66.89 0 64.3-3.59Q63.35-2.73 62.29-1.99 61.23-1.25 60.06-0.7 58.88-0.15 57.65 0.17 56.42 0.49 55.15 0.49L55.15 0.49Q52.39 0.49 49.96-0.44 47.53-1.37 45.71-3.14 43.89-4.91 42.84-7.47 41.79-10.03 41.79-13.31L41.79-13.31Q41.79-16.36 42.84-18.91 43.89-21.46 45.71-23.29 47.53-25.12 49.96-26.14 52.39-27.15 55.15-27.15L55.15-27.15Q56.42-27.15 57.66-26.83 58.91-26.51 60.08-25.95 61.25-25.39 62.31-24.63 63.38-23.88 64.3-23L64.3-23 66.89-26.1 68.5-26.1ZM61.79-13.31L61.79-13.31Q61.79-14.67 61.26-15.95 60.74-17.24 59.84-18.23 58.93-19.21 57.72-19.81 56.52-20.41 55.15-20.41L55.15-20.41Q53.78-20.41 52.57-19.95 51.36-19.48 50.47-18.58 49.58-17.68 49.07-16.35 48.56-15.01 48.56-13.31L48.56-13.31Q48.56-11.6 49.07-10.27 49.58-8.94 50.47-8.03 51.36-7.13 52.57-6.67 53.78-6.2 55.15-6.2L55.15-6.2Q56.52-6.2 57.72-6.8 58.93-7.4 59.84-8.39 60.74-9.38 61.26-10.66 61.79-11.94 61.79-13.31ZM91.74 0L86.69 0Q84.27 0 82.15-0.92 80.02-1.83 78.43-3.43 76.83-5.03 75.91-7.15 75-9.28 75-11.69L75-11.69 75-19.46 71.75-19.46 71.75-26.1 75-26.1 75-36.55 81.64-36.55 81.64-26.1 91.74-26.1 91.74-19.46 81.64-19.46 81.64-11.69Q81.64-10.64 82.03-9.73 82.42-8.81 83.1-8.13 83.78-7.45 84.71-7.04 85.64-6.64 86.69-6.64L86.69-6.64 91.74-6.64 91.74 0ZM113.64 0L108.59 0Q106.17 0 104.05-0.92 101.92-1.83 100.32-3.43 98.72-5.03 97.81-7.15 96.89-9.28 96.89-11.69L96.89-11.69 96.89-19.46 93.64-19.46 93.64-26.1 96.89-26.1 96.89-36.55 103.53-36.55 103.53-26.1 113.64-26.1 113.64-19.46 103.53-19.46 103.53-11.69Q103.53-10.64 103.92-9.73 104.31-8.81 105-8.13 105.68-7.45 106.61-7.04 107.54-6.64 108.59-6.64L108.59-6.64 113.64-6.64 113.64 0ZM150.38-26.1L150.38-9.45Q150.38-7.4 149.6-5.58 148.82-3.76 147.46-2.42 146.11-1.07 144.29-0.29 142.47 0.49 140.4 0.49L140.4 0.49Q138.54 0.49 136.83-0.16 135.12-0.81 133.73-2.05L133.73-2.05Q132.36-0.81 130.67-0.16 128.97 0.49 127.09 0.49L127.09 0.49Q125.01 0.49 123.21-0.29 121.4-1.07 120.05-2.42 118.69-3.76 117.91-5.58 117.13-7.4 117.13-9.45L117.13-9.45 117.13-26.1 123.79-26.1 123.79-9.45Q123.79-8.76 124.05-8.17 124.31-7.57 124.76-7.12 125.21-6.67 125.81-6.41 126.41-6.15 127.09-6.15L127.09-6.15Q127.77-6.15 128.38-6.41 128.99-6.67 129.46-7.12 129.92-7.57 130.18-8.17 130.43-8.76 130.43-9.45L130.43-9.45 130.43-26.1 137.07-26.1 137.07-9.45Q137.07-8.76 137.34-8.17 137.61-7.57 138.06-7.12 138.52-6.67 139.11-6.41 139.71-6.15 140.4-6.15L140.4-6.15Q141.08-6.15 141.69-6.41 142.3-6.67 142.75-7.12 143.2-7.57 143.47-8.17 143.74-8.76 143.74-9.45L143.74-9.45 143.74-26.1 150.38-26.1ZM163.07-33.25L163.07-33.25Q163.07-32.32 162.72-31.52 162.37-30.71 161.76-30.11 161.14-29.52 160.33-29.16 159.51-28.81 158.58-28.81L158.58-28.81Q157.65-28.81 156.84-29.16 156.02-29.52 155.42-30.11 154.82-30.71 154.47-31.52 154.11-32.32 154.11-33.25L154.11-33.25Q154.11-34.16 154.47-34.97 154.82-35.79 155.42-36.39 156.02-36.99 156.84-37.34 157.65-37.7 158.58-37.7L158.58-37.7Q159.51-37.7 160.33-37.34 161.14-36.99 161.76-36.39 162.37-35.79 162.72-34.97 163.07-34.16 163.07-33.25ZM161.93-26.15L161.93 0 155.21 0 155.21-26.15 161.93-26.15ZM181.36 0L181.36 0 166.12 0 166.12-6.64 181.36-6.64Q182.04-6.64 182.53-7.13 183.02-7.62 183.02-8.3L183.02-8.3Q183.02-9.01 182.53-9.23 182.04-9.45 181.36-9.45L181.36-9.45 174.42-9.45Q172.69-9.45 171.18-10.11 169.66-10.77 168.54-11.9 167.42-13.04 166.77-14.55 166.12-16.06 166.12-17.8L166.12-17.8Q166.12-19.53 166.77-21.04 167.42-22.56 168.54-23.68 169.66-24.8 171.18-25.45 172.69-26.1 174.42-26.1L174.42-26.1 187.92-26.1 187.92-19.46 174.42-19.46Q173.74-19.46 173.25-18.97 172.76-18.48 172.76-17.8L172.76-17.8Q172.76-17.09 173.25-16.59 173.74-16.09 174.42-16.09L174.42-16.09 181.36-16.09Q183.07-16.09 184.58-15.52 186.09-14.94 187.22-13.92 188.34-12.89 189-11.45 189.66-10.01 189.66-8.3L189.66-8.3Q189.66-6.57 189-5.07 188.34-3.56 187.22-2.43 186.09-1.29 184.58-0.65 183.07 0 181.36 0ZM216.1-21.46L203.6-6.4Q203.99-6.27 204.38-6.24 204.77-6.2 205.16-6.2L205.16-6.2Q206.13-6.2 207.04-6.47 207.94-6.74 208.73-7.24 209.53-7.74 210.15-8.46 210.77-9.18 211.16-10.06L211.16-10.06 216.05-5.15Q215.12-3.83 213.91-2.78 212.7-1.73 211.3-1 209.89-0.27 208.34 0.11 206.79 0.49 205.16 0.49L205.16 0.49Q202.4 0.49 199.97-0.54 197.54-1.56 195.72-3.39 193.9-5.22 192.85-7.75 191.8-10.28 191.8-13.31L191.8-13.31Q191.8-16.41 192.85-18.97 193.9-21.53 195.72-23.34 197.54-25.15 199.97-26.15 202.4-27.15 205.16-27.15L205.16-27.15Q206.79-27.15 208.36-26.76 209.92-26.37 211.32-25.63 212.73-24.9 213.95-23.84 215.17-22.78 216.1-21.46L216.1-21.46ZM199.25-9.84L207.01-20.14Q206.55-20.31 206.1-20.36 205.65-20.41 205.16-20.41L205.16-20.41Q203.79-20.41 202.58-19.91 201.37-19.41 200.48-18.48 199.59-17.55 199.08-16.25 198.57-14.94 198.57-13.31L198.57-13.31Q198.57-12.94 198.6-12.48 198.64-12.01 198.73-11.54 198.81-11.06 198.93-10.62 199.05-10.18 199.25-9.84L199.25-9.84Z" opacity="1" transform="matrix(1,0,0,1,0,0)" fill="black" class="wordmark-text-0" id="SvgjsPath1304" stroke-width="7" stroke="black" stroke-linejoin="round"></path></svg></g></svg></g><g transform="matrix(1,0,0,1,49.91240000000002,77.91118637839506)"><svg viewBox="0 0 216.59119999999996 17.501141785192583" height="17.501141785192583" width="216.59119999999996"><g transform="matrix(1,0,0,1,0,0)"><svg width="216.59119999999996" viewBox="-1.75 -39 651.28 53.550000000000004" height="17.501141785192583" data-palette-color="#000000"><path d="M18.15-34.9L18.15-34.9Q22.25-34.9 24.73-34.1 27.2-33.3 28.13-31.3 29.05-29.3 28.55-25.75L28.55-25.75Q28.05-22.1 26.45-20.18 24.85-18.25 21.65-17.95L21.65-17.95 21.6-17.75Q25.45-17.4 26.63-14.93 27.8-12.45 27.2-8.45L27.2-8.45Q26.65-4.9 25.33-2.98 24-1.05 21.58-0.33 19.15 0.4 15.25 0.4L15.25 0.4Q12.25 0.4 10.08 0.38 7.9 0.35 6.08 0.25 4.25 0.15 2.25 0L2.25 0 3.35-3.5Q4.5-3.45 7.5-3.4 10.5-3.35 14.6-3.35L14.6-3.35Q17.45-3.35 19.15-3.85 20.85-4.35 21.73-5.7 22.6-7.05 22.9-9.5L22.9-9.5Q23.3-12.15 22.83-13.58 22.35-15 20.83-15.58 19.3-16.15 16.45-16.2L16.45-16.2 5.2-16.2 5.7-19.55 16.65-19.55Q19.15-19.6 20.73-20.1 22.3-20.6 23.15-21.9 24-23.2 24.3-25.55L24.3-25.55Q24.65-27.9 24.15-29.1 23.65-30.3 22.15-30.73 20.65-31.15 17.95-31.15L17.95-31.15Q15.45-31.15 13.45-31.15 11.45-31.15 9.98-31.15 8.5-31.15 7.5-31.05L7.5-31.05 7.1-34.5Q8.85-34.7 10.45-34.77 12.05-34.85 13.88-34.88 15.7-34.9 18.15-34.9ZM7.1-34.5L11.4-34.5 6.55 0 2.25 0 7.1-34.5ZM36.1-24.35L39.35-24.35 38.95-17.65 39.25-16.9 36.9 0 32.65 0 36.1-24.35ZM50.2-24.95L51.45-24.95 50.4-20.95 49.15-20.95Q46.95-20.95 44.57-19.53 42.2-18.1 38.75-15.5L38.75-15.5 38.55-18.25Q41.7-21.45 44.65-23.2 47.6-24.95 50.2-24.95L50.2-24.95ZM56.2-24.35L60.4-24.35 57 0 52.8 0 56.2-24.35ZM58.65-34.7L60.65-34.7Q61.34-34.7 61.65-34.3 61.95-33.9 61.84-33.3L61.84-33.3 61.5-30.45Q61.3-29.25 60.09-29.25L60.09-29.25 58.15-29.25Q56.75-29.25 56.9-30.65L56.9-30.65 57.3-33.45Q57.45-34.7 58.65-34.7L58.65-34.7ZM82.54-6.4L85.09-23.8 89.39-23.8 85.99-0.45Q85.69 2 84.74 4 83.79 6 82.12 7.45 80.44 8.9 77.97 9.68 75.49 10.45 72.14 10.55L72.14 10.55Q71.49 10.55 70.02 10.53 68.54 10.5 66.87 10.3 65.19 10.1 63.84 9.75L63.84 9.75 64.29 6.9Q65.34 6.95 66.44 6.98 67.54 7 68.94 7 70.34 7 72.19 6.95L72.19 6.95Q75.74 6.85 78.39 5.4 81.04 3.95 81.69 0.4L81.69 0.4Q82.09-1.35 82.47-2.95 82.84-4.55 83.69-5.9L83.69-5.9 82.54-6.4ZM77.39-24.95L77.39-24.95Q79.29-24.95 81.39-24.8 83.49-24.65 85.54-24.4 87.59-24.15 89.29-23.8L89.29-23.8 87.39-21.15Q84.64-21.25 82.47-21.33 80.29-21.4 78.99-21.4L78.99-21.4Q76.54-21.4 74.99-21.08 73.44-20.75 72.49-19.8 71.54-18.85 70.99-17 70.44-15.15 69.99-12.1L69.99-12.1Q69.44-8.5 69.52-6.55 69.59-4.6 70.42-3.85 71.24-3.1 72.89-3.1L72.89-3.1Q74.69-3.1 76.47-3.88 78.24-4.65 80.12-6.15 81.99-7.65 84.09-9.85L84.09-9.85 84.99-7.9Q83.74-5.65 81.74-3.73 79.74-1.8 77.24-0.6 74.74 0.6 71.89 0.6L71.89 0.6Q69.29 0.6 67.64-0.58 65.99-1.75 65.47-4.6 64.94-7.45 65.69-12.45L65.69-12.45Q66.29-16.6 67.29-19.07 68.29-21.55 69.74-22.83 71.19-24.1 73.09-24.53 74.99-24.95 77.39-24.95ZM111.84-24.95L111.84-24.95Q114.89-24.95 116.47-23.25 118.04-21.55 117.59-18.2L117.59-18.2 114.99 0 110.74 0 113.19-17.15Q113.49-19.55 112.89-20.45 112.29-21.35 110.54-21.35L110.54-21.35Q108.14-21.35 105.64-19.83 103.14-18.3 99.69-15.55L99.69-15.55 99.74-18.7Q103.19-21.8 106.12-23.38 109.04-24.95 111.84-24.95ZM98.54-35L102.79-35 101.44-25.2Q101.19-23.2 100.77-21.18 100.34-19.15 99.94-18L99.94-18 100.24-17.3 97.84 0 93.59 0 98.54-35ZM128.79-31.55L132.99-31.55 129.49-6.6Q129.24-4.85 129.84-4.15 130.44-3.45 132.19-3.45L132.19-3.45 135.99-3.45 136.14-0.2Q135.34 0 134.26 0.15 133.19 0.3 132.21 0.38 131.24 0.45 130.69 0.45L130.69 0.45Q127.54 0.45 126.14-1.3 124.74-3.05 125.19-6.2L125.19-6.2 128.79-31.55ZM128.04-24.35L139.74-24.35 139.24-21 122.84-21 123.24-24.1 128.04-24.35ZM155.28-24.95L155.28-24.95Q159.14-24.95 161.24-24.08 163.34-23.2 164.06-21.45 164.79-19.7 164.34-17.15L164.34-17.15Q163.94-14.8 162.86-13.4 161.79-12 159.89-11.3 157.99-10.6 155.09-10.35L155.09-10.35 143.24-9.25 143.69-12.45 155.03-13.55Q156.69-13.7 157.71-14.08 158.74-14.45 159.31-15.28 159.89-16.1 160.14-17.5L160.14-17.5Q160.44-19.35 159.89-20.18 159.34-21 158.03-21.2 156.74-21.4 154.74-21.4L154.74-21.4Q152.74-21.4 151.34-21.05 149.94-20.7 148.99-19.78 148.03-18.85 147.44-17.15 146.84-15.45 146.39-12.7L146.39-12.7Q145.78-8.65 146.34-6.55 146.89-4.45 148.46-3.73 150.03-3 152.59-3L152.59-3Q153.94-3 155.51-3.08 157.09-3.15 158.64-3.3 160.19-3.45 161.54-3.6L161.54-3.6 161.84-0.75Q160.59-0.25 158.79 0.05 156.99 0.35 155.16 0.48 153.34 0.6 151.89 0.6L151.89 0.6Q147.69 0.6 145.31-0.83 142.94-2.25 142.16-5.23 141.39-8.2 141.99-12.75L141.99-12.75Q142.49-16.35 143.44-18.73 144.39-21.1 145.94-22.45 147.49-23.8 149.78-24.38 152.09-24.95 155.28-24.95ZM186.43-24.95L186.43-24.95Q188.48-24.95 189.86-24.2 191.23-23.45 191.86-21.95 192.48-20.45 192.18-18.2L192.18-18.2 189.58 0 185.33 0 187.78-17.15Q188.08-19.55 187.48-20.45 186.88-21.35 185.13-21.35L185.13-21.35Q182.73-21.35 180.23-19.83 177.73-18.3 174.28-15.6L174.28-15.6 174.33-18.7Q177.78-21.8 180.71-23.38 183.63-24.95 186.43-24.95ZM171.63-24.35L175.03-24.35 174.63-18.05 174.83-17.3 172.43 0 168.18 0 171.63-24.35ZM200.73-24.35L204.93-24.35 201.53 0 197.33 0 200.73-24.35ZM203.18-34.7L205.18-34.7Q205.88-34.7 206.18-34.3 206.48-33.9 206.38-33.3L206.38-33.3 206.03-30.45Q205.83-29.25 204.63-29.25L204.63-29.25 202.68-29.25Q201.28-29.25 201.43-30.65L201.43-30.65 201.83-33.45Q201.98-34.7 203.18-34.7L203.18-34.7ZM227.63-24.95L227.63-24.95Q229.68-24.95 231.05-24.2 232.43-23.45 233.05-21.95 233.68-20.45 233.38-18.2L233.38-18.2 230.78 0 226.53 0 228.98-17.15Q229.28-19.55 228.68-20.45 228.08-21.35 226.33-21.35L226.33-21.35Q223.93-21.35 221.43-19.83 218.93-18.3 215.48-15.6L215.48-15.6 215.53-18.7Q218.98-21.8 221.9-23.38 224.83-24.95 227.63-24.95ZM212.83-24.35L216.23-24.35 215.83-18.05 216.03-17.3 213.63 0 209.38 0 212.83-24.35ZM255.98-6.4L258.53-23.8 262.83-23.8 259.43-0.45Q259.13 2 258.18 4 257.23 6 255.55 7.45 253.88 8.9 251.4 9.68 248.93 10.45 245.58 10.55L245.58 10.55Q244.93 10.55 243.45 10.53 241.98 10.5 240.3 10.3 238.63 10.1 237.28 9.75L237.28 9.75 237.73 6.9Q238.78 6.95 239.88 6.98 240.98 7 242.38 7 243.78 7 245.63 6.95L245.63 6.95Q249.18 6.85 251.83 5.4 254.48 3.95 255.13 0.4L255.13 0.4Q255.53-1.35 255.9-2.95 256.28-4.55 257.13-5.9L257.13-5.9 255.98-6.4ZM250.83-24.95L250.83-24.95Q252.73-24.95 254.83-24.8 256.93-24.65 258.98-24.4 261.03-24.15 262.73-23.8L262.73-23.8 260.83-21.15Q258.08-21.25 255.9-21.33 253.73-21.4 252.43-21.4L252.43-21.4Q249.98-21.4 248.43-21.08 246.88-20.75 245.93-19.8 244.98-18.85 244.43-17 243.88-15.15 243.43-12.1L243.43-12.1Q242.88-8.5 242.95-6.55 243.03-4.6 243.85-3.85 244.68-3.1 246.33-3.1L246.33-3.1Q248.13-3.1 249.9-3.88 251.68-4.65 253.55-6.15 255.43-7.65 257.53-9.85L257.53-9.85 258.43-7.9Q257.18-5.65 255.18-3.73 253.18-1.8 250.68-0.6 248.18 0.6 245.33 0.6L245.33 0.6Q242.73 0.6 241.08-0.58 239.43-1.75 238.9-4.6 238.38-7.45 239.13-12.45L239.13-12.45Q239.73-16.6 240.73-19.07 241.73-21.55 243.18-22.83 244.63-24.1 246.53-24.53 248.43-24.95 250.83-24.95ZM289.62-34.55L289.62-34.55Q292.17-34.55 294.72-34.55 297.27-34.55 299.75-34.48 302.22-34.4 304.52-34.25L304.52-34.25 303.92-30.8 290.17-30.8Q288.47-30.8 287.67-30 286.87-29.2 286.62-27.4L286.62-27.4 283.82-6.95Q283.57-5.25 284.22-4.48 284.87-3.7 286.57-3.7L286.57-3.7 300.07-3.7 299.97-0.25Q297.77-0.1 295.42-0.05 293.07 0 290.69 0.03 288.32 0.05 286.02 0.05L286.02 0.05Q282.22 0.05 280.55-1.8 278.87-3.65 279.32-6.85L279.32-6.85 282.37-28.65Q282.77-31.45 284.6-33 286.42-34.55 289.62-34.55ZM281.57-16.5L282.07-19.9 300.42-19.9 299.97-16.5 281.57-16.5ZM324.32-24.95L324.32-24.95Q326.37-24.95 327.74-24.2 329.12-23.45 329.74-21.95 330.37-20.45 330.07-18.2L330.07-18.2 327.47 0 323.22 0 325.67-17.15Q325.97-19.55 325.37-20.45 324.77-21.35 323.02-21.35L323.02-21.35Q320.62-21.35 318.12-19.83 315.62-18.3 312.17-15.6L312.17-15.6 312.22-18.7Q315.67-21.8 318.59-23.38 321.52-24.95 324.32-24.95ZM309.52-24.35L312.92-24.35 312.52-18.05 312.72-17.3 310.32 0 306.07 0 309.52-24.35ZM348.91-24.95L348.91-24.95Q352.76-24.95 354.86-24.08 356.96-23.2 357.69-21.45 358.41-19.7 357.96-17.15L357.96-17.15Q357.56-14.8 356.49-13.4 355.41-12 353.51-11.3 351.61-10.6 348.71-10.35L348.71-10.35 336.86-9.25 337.31-12.45 348.66-13.55Q350.31-13.7 351.34-14.08 352.36-14.45 352.94-15.28 353.51-16.1 353.76-17.5L353.76-17.5Q354.06-19.35 353.51-20.18 352.96-21 351.66-21.2 350.36-21.4 348.36-21.4L348.36-21.4Q346.36-21.4 344.96-21.05 343.56-20.7 342.61-19.78 341.66-18.85 341.06-17.15 340.46-15.45 340.01-12.7L340.01-12.7Q339.41-8.65 339.96-6.55 340.51-4.45 342.09-3.73 343.66-3 346.21-3L346.21-3Q347.56-3 349.14-3.08 350.71-3.15 352.26-3.3 353.81-3.45 355.16-3.6L355.16-3.6 355.46-0.75Q354.21-0.25 352.41 0.05 350.61 0.35 348.79 0.48 346.96 0.6 345.51 0.6L345.51 0.6Q341.31 0.6 338.94-0.83 336.56-2.25 335.79-5.23 335.01-8.2 335.61-12.75L335.61-12.75Q336.11-16.35 337.06-18.73 338.01-21.1 339.56-22.45 341.11-23.8 343.41-24.38 345.71-24.95 348.91-24.95ZM365.26-24.35L368.51-24.35 368.11-17.65 368.41-16.9 366.06 0 361.81 0 365.26-24.35ZM379.36-24.95L380.61-24.95 379.56-20.95 378.31-20.95Q376.11-20.95 373.74-19.53 371.36-18.1 367.91-15.5L367.91-15.5 367.71-18.25Q370.86-21.45 373.81-23.2 376.76-24.95 379.36-24.95L379.36-24.95ZM398.91-6.4L401.46-23.8 405.76-23.8 402.36-0.45Q402.06 2 401.11 4 400.16 6 398.48 7.45 396.81 8.9 394.33 9.68 391.86 10.45 388.51 10.55L388.51 10.55Q387.86 10.55 386.38 10.53 384.91 10.5 383.23 10.3 381.56 10.1 380.21 9.75L380.21 9.75 380.66 6.9Q381.71 6.95 382.81 6.98 383.91 7 385.31 7 386.71 7 388.56 6.95L388.56 6.95Q392.11 6.85 394.76 5.4 397.41 3.95 398.06 0.4L398.06 0.4Q398.46-1.35 398.83-2.95 399.21-4.55 400.06-5.9L400.06-5.9 398.91-6.4ZM393.76-24.95L393.76-24.95Q395.66-24.95 397.76-24.8 399.86-24.65 401.91-24.4 403.96-24.15 405.66-23.8L405.66-23.8 403.76-21.15Q401.01-21.25 398.83-21.33 396.66-21.4 395.36-21.4L395.36-21.4Q392.91-21.4 391.36-21.08 389.81-20.75 388.86-19.8 387.91-18.85 387.36-17 386.81-15.15 386.36-12.1L386.36-12.1Q385.81-8.5 385.88-6.55 385.96-4.6 386.78-3.85 387.61-3.1 389.26-3.1L389.26-3.1Q391.06-3.1 392.83-3.88 394.61-4.65 396.48-6.15 398.36-7.65 400.46-9.85L400.46-9.85 401.36-7.9Q400.11-5.65 398.11-3.73 396.11-1.8 393.61-0.6 391.11 0.6 388.26 0.6L388.26 0.6Q385.66 0.6 384.01-0.58 382.36-1.75 381.83-4.6 381.31-7.45 382.06-12.45L382.06-12.45Q382.66-16.6 383.66-19.07 384.66-21.55 386.11-22.83 387.56-24.1 389.46-24.53 391.36-24.95 393.76-24.95ZM429.96-24.35L434.36-24.35Q433.86-22.2 433.33-20.15 432.81-18.1 432.16-16.07 431.51-14.05 430.73-12.05 429.96-10.05 429.03-8.08 428.11-6.1 426.96-4.05L426.96-4.05Q424.31 0.9 421.81 3.83 419.31 6.75 416.63 8.22 413.96 9.7 410.76 10.3L410.76 10.3 409.96 7.25Q411.86 6.8 413.56 5.98 415.26 5.15 416.88 3.75 418.51 2.35 420.08 0.13 421.66-2.1 423.26-5.3L423.26-5.3Q424.81-8.35 426.03-11.25 427.26-14.15 428.23-17.32 429.21-20.5 429.96-24.35L429.96-24.35ZM410.41-24.35L414.86-24.35 418.71-4.3Q418.96-3.35 419.86-3.35L419.86-3.35 422.71-3.35 420.76 0 417.96 0Q416.86 0 416.11-0.63 415.36-1.25 415.11-2.25L415.11-2.25 410.41-24.35ZM453.25-34.5L457.7-34.5 452.85 0 448.4 0 453.25-34.5ZM455.3-20.3L472.1-20.3 471.6-16.5 454.75-16.5 455.3-20.3ZM473.6-34.5L477.95-34.5 473.1 0 468.75 0 473.6-34.5ZM494.8-24.95L494.8-24.95Q498.9-24.95 501.3-23.68 503.7-22.4 504.52-19.55 505.35-16.7 504.65-11.95L504.65-11.95Q504-7.35 502.52-4.58 501.05-1.8 498.43-0.58 495.8 0.65 491.7 0.65L491.7 0.65Q487.65 0.65 485.22-0.63 482.8-1.9 481.95-4.75 481.1-7.6 481.75-12.3L481.75-12.3Q482.4-16.9 483.88-19.68 485.35-22.45 488-23.7 490.65-24.95 494.8-24.95ZM494.8-21.35L494.8-21.35Q492.1-21.35 490.4-20.55 488.7-19.75 487.72-17.73 486.75-15.7 486.2-11.95L486.2-11.95Q485.7-8.5 486.02-6.53 486.35-4.55 487.72-3.75 489.1-2.95 491.7-2.95L491.7-2.95Q494.45-2.95 496.15-3.8 497.85-4.65 498.82-6.7 499.8-8.75 500.3-12.3L500.3-12.3Q500.8-15.85 500.47-17.8 500.15-19.75 498.77-20.55 497.4-21.35 494.8-21.35ZM512.85-24.35L516.1-24.35 515.7-17.65 516-16.9 513.65 0 509.4 0 512.85-24.35ZM526.95-24.95L528.2-24.95 527.15-20.95 525.9-20.95Q523.7-20.95 521.32-19.53 518.95-18.1 515.5-15.5L515.5-15.5 515.3-18.25Q518.45-21.45 521.4-23.2 524.35-24.95 526.95-24.95L526.95-24.95ZM532.94-24.35L537.14-24.35 533.75 0 529.54 0 532.94-24.35ZM535.39-34.7L537.39-34.7Q538.09-34.7 538.39-34.3 538.69-33.9 538.59-33.3L538.59-33.3 538.25-30.45Q538.04-29.25 536.84-29.25L536.84-29.25 534.89-29.25Q533.5-29.25 533.64-30.65L533.64-30.65 534.04-33.45Q534.19-34.7 535.39-34.7L535.39-34.7ZM540.59-3.45L558.54-20.9 563.44-20.85 545.49-3.4 540.59-3.45ZM540.64-3.45L561.14-3.45 560.64 0 540.14 0 540.64-3.45ZM543.74-24.35L563.89-24.35 563.39-20.85 543.29-20.85 543.74-24.35ZM580.34-24.95L580.34-24.95Q584.44-24.95 586.84-23.68 589.24-22.4 590.06-19.55 590.89-16.7 590.19-11.95L590.19-11.95Q589.54-7.35 588.06-4.58 586.59-1.8 583.96-0.58 581.34 0.65 577.24 0.65L577.24 0.65Q573.19 0.65 570.76-0.63 568.34-1.9 567.49-4.75 566.64-7.6 567.29-12.3L567.29-12.3Q567.94-16.9 569.41-19.68 570.89-22.45 573.54-23.7 576.19-24.95 580.34-24.95ZM580.34-21.35L580.34-21.35Q577.64-21.35 575.94-20.55 574.24-19.75 573.26-17.73 572.29-15.7 571.74-11.95L571.74-11.95Q571.24-8.5 571.56-6.53 571.89-4.55 573.26-3.75 574.64-2.95 577.24-2.95L577.24-2.95Q579.99-2.95 581.69-3.8 583.39-4.65 584.36-6.7 585.34-8.75 585.84-12.3L585.84-12.3Q586.34-15.85 586.01-17.8 585.69-19.75 584.31-20.55 582.94-21.35 580.34-21.35ZM613.19-24.95L613.19-24.95Q615.24-24.95 616.61-24.2 617.99-23.45 618.61-21.95 619.24-20.45 618.94-18.2L618.94-18.2 616.34 0 612.09 0 614.54-17.15Q614.84-19.55 614.24-20.45 613.64-21.35 611.89-21.35L611.89-21.35Q609.49-21.35 606.99-19.83 604.49-18.3 601.04-15.6L601.04-15.6 601.09-18.7Q604.54-21.8 607.46-23.38 610.39-24.95 613.19-24.95ZM598.39-24.35L601.79-24.35 601.39-18.05 601.59-17.3 599.19 0 594.94 0 598.39-24.35ZM635.28-24.95L635.28-24.95Q636.98-24.95 638.83-24.83 640.68-24.7 642.41-24.55 644.13-24.4 645.53-24.2L645.53-24.2 644.98-21.15Q642.68-21.25 640.38-21.3 638.08-21.35 635.38-21.4L635.38-21.4Q633.28-21.4 631.98-21.28 630.68-21.15 630.03-20.63 629.38-20.1 629.23-18.9L629.23-18.9Q629.03-17.4 629.83-16.73 630.63-16.05 632.18-15.35L632.18-15.35 638.98-12.35Q640.88-11.55 642.03-10.68 643.18-9.8 643.63-8.58 644.08-7.35 643.83-5.45L643.83-5.45Q643.48-2.75 642.06-1.48 640.63-0.2 638.23 0.18 635.83 0.55 632.43 0.55L632.43 0.55Q630.08 0.55 628.71 0.45 627.33 0.35 626.13 0.2 624.93 0.05 623.13-0.15L623.13-0.15 623.63-3.25Q624.83-3.15 626.18-3.1 627.53-3.05 628.88-3.03 630.23-3 631.43-3L631.43-3Q634.53-3.05 636.23-3.28 637.93-3.5 638.71-4.1 639.48-4.7 639.68-5.85L639.68-5.85Q639.83-6.9 639.48-7.45 639.13-8 638.38-8.38 637.63-8.75 636.53-9.25L636.53-9.25 629.73-12.25Q628.03-13.05 626.91-13.95 625.78-14.85 625.33-16.13 624.88-17.4 625.08-19.2L625.08-19.2Q625.38-21.6 626.61-22.85 627.83-24.1 630.01-24.55 632.18-25 635.28-24.95Z" opacity="1" transform="matrix(1,0,0,1,0,0)" fill="black" class="slogan-text-1" id="SvgjsPath1303" stroke-width="7" stroke="black" stroke-linejoin="round"></path></svg></g></svg></g></svg></g></svg></g></svg></g></svg></g></svg></g></mask><g transform="matrix(1,0,0,1,39.55199999999999,75.89383591820618)"><svg viewBox="0 0 316.416 95.41232816358765" height="95.41232816358765" width="316.416"><g><svg viewBox="0 0 316.416 95.41232816358765" height="95.41232816358765" width="316.416"><g><svg viewBox="0 0 316.416 95.41232816358765" height="95.41232816358765" width="316.416"><g><svg viewBox="0 0 316.416 95.41232816358765" height="95.41232816358765" width="316.416"><g id="textblocktransform"><svg viewBox="0 0 316.416 95.41232816358765" height="95.41232816358765" width="316.416" id="textblock"><g><svg viewBox="0 0 316.416 64.95292883097522" height="64.95292883097522" width="316.416"><g transform="matrix(1,0,0,1,0,0)"><svg width="316.416" viewBox="-1 -41.7 221.1 46.190000000000005" height="64.95292883097522" data-palette-color="#000000"><path d="M37.99-35.01L37.99-10.01Q37.99-7.84 37.17-5.92 36.35-4 34.92-2.58 33.5-1.15 31.58-0.33 29.66 0.49 27.49 0.49L27.49 0.49Q25.54 0.49 23.74-0.2 21.95-0.88 20.51-2.2L20.51-2.2Q19.07-0.88 17.26-0.2 15.45 0.49 13.5 0.49L13.5 0.49Q11.33 0.49 9.41-0.33 7.5-1.15 6.07-2.58 4.64-4 3.82-5.92 3-7.84 3-10.01L3-10.01 3-35.01 10.01-35.01 10.01-10.01Q10.01-9.28 10.28-8.63 10.55-7.98 11.02-7.51 11.5-7.03 12.13-6.76 12.77-6.49 13.5-6.49L13.5-6.49Q14.23-6.49 14.87-6.76 15.5-7.03 15.98-7.51 16.46-7.98 16.72-8.63 16.99-9.28 16.99-10.01L16.99-10.01 16.99-35.01 24-35.01 24-10.01Q24-9.28 24.27-8.63 24.54-7.98 25.01-7.51 25.49-7.03 26.12-6.76 26.76-6.49 27.49-6.49L27.49-6.49Q28.22-6.49 28.86-6.76 29.49-7.03 29.97-7.51 30.44-7.98 30.73-8.63 31.01-9.28 31.01-10.01L31.01-10.01 31.01-35.01 37.99-35.01ZM68.5-26.1L68.5 0 66.89 0 64.3-3.59Q63.35-2.73 62.29-1.99 61.23-1.25 60.06-0.7 58.88-0.15 57.65 0.17 56.42 0.49 55.15 0.49L55.15 0.49Q52.39 0.49 49.96-0.44 47.53-1.37 45.71-3.14 43.89-4.91 42.84-7.47 41.79-10.03 41.79-13.31L41.79-13.31Q41.79-16.36 42.84-18.91 43.89-21.46 45.71-23.29 47.53-25.12 49.96-26.14 52.39-27.15 55.15-27.15L55.15-27.15Q56.42-27.15 57.66-26.83 58.91-26.51 60.08-25.95 61.25-25.39 62.31-24.63 63.38-23.88 64.3-23L64.3-23 66.89-26.1 68.5-26.1ZM61.79-13.31L61.79-13.31Q61.79-14.67 61.26-15.95 60.74-17.24 59.84-18.23 58.93-19.21 57.72-19.81 56.52-20.41 55.15-20.41L55.15-20.41Q53.78-20.41 52.57-19.95 51.36-19.48 50.47-18.58 49.58-17.68 49.07-16.35 48.56-15.01 48.56-13.31L48.56-13.31Q48.56-11.6 49.07-10.27 49.58-8.94 50.47-8.03 51.36-7.13 52.57-6.67 53.78-6.2 55.15-6.2L55.15-6.2Q56.52-6.2 57.72-6.8 58.93-7.4 59.84-8.39 60.74-9.38 61.26-10.66 61.79-11.94 61.79-13.31ZM91.74 0L86.69 0Q84.27 0 82.15-0.92 80.02-1.83 78.43-3.43 76.83-5.03 75.91-7.15 75-9.28 75-11.69L75-11.69 75-19.46 71.75-19.46 71.75-26.1 75-26.1 75-36.55 81.64-36.55 81.64-26.1 91.74-26.1 91.74-19.46 81.64-19.46 81.64-11.69Q81.64-10.64 82.03-9.73 82.42-8.81 83.1-8.13 83.78-7.45 84.71-7.04 85.64-6.64 86.69-6.64L86.69-6.64 91.74-6.64 91.74 0ZM113.64 0L108.59 0Q106.17 0 104.05-0.92 101.92-1.83 100.32-3.43 98.72-5.03 97.81-7.15 96.89-9.28 96.89-11.69L96.89-11.69 96.89-19.46 93.64-19.46 93.64-26.1 96.89-26.1 96.89-36.55 103.53-36.55 103.53-26.1 113.64-26.1 113.64-19.46 103.53-19.46 103.53-11.69Q103.53-10.64 103.92-9.73 104.31-8.81 105-8.13 105.68-7.45 106.61-7.04 107.54-6.64 108.59-6.64L108.59-6.64 113.64-6.64 113.64 0ZM150.38-26.1L150.38-9.45Q150.38-7.4 149.6-5.58 148.82-3.76 147.46-2.42 146.11-1.07 144.29-0.29 142.47 0.49 140.4 0.49L140.4 0.49Q138.54 0.49 136.83-0.16 135.12-0.81 133.73-2.05L133.73-2.05Q132.36-0.81 130.67-0.16 128.97 0.49 127.09 0.49L127.09 0.49Q125.01 0.49 123.21-0.29 121.4-1.07 120.05-2.42 118.69-3.76 117.91-5.58 117.13-7.4 117.13-9.45L117.13-9.45 117.13-26.1 123.79-26.1 123.79-9.45Q123.79-8.76 124.05-8.17 124.31-7.57 124.76-7.12 125.21-6.67 125.81-6.41 126.41-6.15 127.09-6.15L127.09-6.15Q127.77-6.15 128.38-6.41 128.99-6.67 129.46-7.12 129.92-7.57 130.18-8.17 130.43-8.76 130.43-9.45L130.43-9.45 130.43-26.1 137.07-26.1 137.07-9.45Q137.07-8.76 137.34-8.17 137.61-7.57 138.06-7.12 138.52-6.67 139.11-6.41 139.71-6.15 140.4-6.15L140.4-6.15Q141.08-6.15 141.69-6.41 142.3-6.67 142.75-7.12 143.2-7.57 143.47-8.17 143.74-8.76 143.74-9.45L143.74-9.45 143.74-26.1 150.38-26.1ZM163.07-33.25L163.07-33.25Q163.07-32.32 162.72-31.52 162.37-30.71 161.76-30.11 161.14-29.52 160.33-29.16 159.51-28.81 158.58-28.81L158.58-28.81Q157.65-28.81 156.84-29.16 156.02-29.52 155.42-30.11 154.82-30.71 154.47-31.52 154.11-32.32 154.11-33.25L154.11-33.25Q154.11-34.16 154.47-34.97 154.82-35.79 155.42-36.39 156.02-36.99 156.84-37.34 157.65-37.7 158.58-37.7L158.58-37.7Q159.51-37.7 160.33-37.34 161.14-36.99 161.76-36.39 162.37-35.79 162.72-34.97 163.07-34.16 163.07-33.25ZM161.93-26.15L161.93 0 155.21 0 155.21-26.15 161.93-26.15ZM181.36 0L181.36 0 166.12 0 166.12-6.64 181.36-6.64Q182.04-6.64 182.53-7.13 183.02-7.62 183.02-8.3L183.02-8.3Q183.02-9.01 182.53-9.23 182.04-9.45 181.36-9.45L181.36-9.45 174.42-9.45Q172.69-9.45 171.18-10.11 169.66-10.77 168.54-11.9 167.42-13.04 166.77-14.55 166.12-16.06 166.12-17.8L166.12-17.8Q166.12-19.53 166.77-21.04 167.42-22.56 168.54-23.68 169.66-24.8 171.18-25.45 172.69-26.1 174.42-26.1L174.42-26.1 187.92-26.1 187.92-19.46 174.42-19.46Q173.74-19.46 173.25-18.97 172.76-18.48 172.76-17.8L172.76-17.8Q172.76-17.09 173.25-16.59 173.74-16.09 174.42-16.09L174.42-16.09 181.36-16.09Q183.07-16.09 184.58-15.52 186.09-14.94 187.22-13.92 188.34-12.89 189-11.45 189.66-10.01 189.66-8.3L189.66-8.3Q189.66-6.57 189-5.07 188.34-3.56 187.22-2.43 186.09-1.29 184.58-0.65 183.07 0 181.36 0ZM216.1-21.46L203.6-6.4Q203.99-6.27 204.38-6.24 204.77-6.2 205.16-6.2L205.16-6.2Q206.13-6.2 207.04-6.47 207.94-6.74 208.73-7.24 209.53-7.74 210.15-8.46 210.77-9.18 211.16-10.06L211.16-10.06 216.05-5.15Q215.12-3.83 213.91-2.78 212.7-1.73 211.3-1 209.89-0.27 208.34 0.11 206.79 0.49 205.16 0.49L205.16 0.49Q202.4 0.49 199.97-0.54 197.54-1.56 195.72-3.39 193.9-5.22 192.85-7.75 191.8-10.28 191.8-13.31L191.8-13.31Q191.8-16.41 192.85-18.97 193.9-21.53 195.72-23.34 197.54-25.15 199.97-26.15 202.4-27.15 205.16-27.15L205.16-27.15Q206.79-27.15 208.36-26.76 209.92-26.37 211.32-25.63 212.73-24.9 213.95-23.84 215.17-22.78 216.1-21.46L216.1-21.46ZM199.25-9.84L207.01-20.14Q206.55-20.31 206.1-20.36 205.65-20.41 205.16-20.41L205.16-20.41Q203.79-20.41 202.58-19.91 201.37-19.41 200.48-18.48 199.59-17.55 199.08-16.25 198.57-14.94 198.57-13.31L198.57-13.31Q198.57-12.94 198.6-12.48 198.64-12.01 198.73-11.54 198.81-11.06 198.93-10.62 199.05-10.18 199.25-9.84L199.25-9.84Z" opacity="1" transform="matrix(1,0,0,1,0,0)" fill="#000000" class="wordmark-text-0" data-fill-palette-color="primary" id="text-0"></path></svg></g></svg></g><g transform="matrix(1,0,0,1,49.91240000000002,77.91118637839506)"><svg viewBox="0 0 216.59119999999996 17.501141785192583" height="17.501141785192583" width="216.59119999999996"><g transform="matrix(1,0,0,1,0,0)"><svg width="216.59119999999996" viewBox="-1.75 -39 651.28 53.550000000000004" height="17.501141785192583" data-palette-color="#000000"><path d="M18.15-34.9L18.15-34.9Q22.25-34.9 24.73-34.1 27.2-33.3 28.13-31.3 29.05-29.3 28.55-25.75L28.55-25.75Q28.05-22.1 26.45-20.18 24.85-18.25 21.65-17.95L21.65-17.95 21.6-17.75Q25.45-17.4 26.63-14.93 27.8-12.45 27.2-8.45L27.2-8.45Q26.65-4.9 25.33-2.98 24-1.05 21.58-0.33 19.15 0.4 15.25 0.4L15.25 0.4Q12.25 0.4 10.08 0.38 7.9 0.35 6.08 0.25 4.25 0.15 2.25 0L2.25 0 3.35-3.5Q4.5-3.45 7.5-3.4 10.5-3.35 14.6-3.35L14.6-3.35Q17.45-3.35 19.15-3.85 20.85-4.35 21.73-5.7 22.6-7.05 22.9-9.5L22.9-9.5Q23.3-12.15 22.83-13.58 22.35-15 20.83-15.58 19.3-16.15 16.45-16.2L16.45-16.2 5.2-16.2 5.7-19.55 16.65-19.55Q19.15-19.6 20.73-20.1 22.3-20.6 23.15-21.9 24-23.2 24.3-25.55L24.3-25.55Q24.65-27.9 24.15-29.1 23.65-30.3 22.15-30.73 20.65-31.15 17.95-31.15L17.95-31.15Q15.45-31.15 13.45-31.15 11.45-31.15 9.98-31.15 8.5-31.15 7.5-31.05L7.5-31.05 7.1-34.5Q8.85-34.7 10.45-34.77 12.05-34.85 13.88-34.88 15.7-34.9 18.15-34.9ZM7.1-34.5L11.4-34.5 6.55 0 2.25 0 7.1-34.5ZM36.1-24.35L39.35-24.35 38.95-17.65 39.25-16.9 36.9 0 32.65 0 36.1-24.35ZM50.2-24.95L51.45-24.95 50.4-20.95 49.15-20.95Q46.95-20.95 44.57-19.53 42.2-18.1 38.75-15.5L38.75-15.5 38.55-18.25Q41.7-21.45 44.65-23.2 47.6-24.95 50.2-24.95L50.2-24.95ZM56.2-24.35L60.4-24.35 57 0 52.8 0 56.2-24.35ZM58.65-34.7L60.65-34.7Q61.34-34.7 61.65-34.3 61.95-33.9 61.84-33.3L61.84-33.3 61.5-30.45Q61.3-29.25 60.09-29.25L60.09-29.25 58.15-29.25Q56.75-29.25 56.9-30.65L56.9-30.65 57.3-33.45Q57.45-34.7 58.65-34.7L58.65-34.7ZM82.54-6.4L85.09-23.8 89.39-23.8 85.99-0.45Q85.69 2 84.74 4 83.79 6 82.12 7.45 80.44 8.9 77.97 9.68 75.49 10.45 72.14 10.55L72.14 10.55Q71.49 10.55 70.02 10.53 68.54 10.5 66.87 10.3 65.19 10.1 63.84 9.75L63.84 9.75 64.29 6.9Q65.34 6.95 66.44 6.98 67.54 7 68.94 7 70.34 7 72.19 6.95L72.19 6.95Q75.74 6.85 78.39 5.4 81.04 3.95 81.69 0.4L81.69 0.4Q82.09-1.35 82.47-2.95 82.84-4.55 83.69-5.9L83.69-5.9 82.54-6.4ZM77.39-24.95L77.39-24.95Q79.29-24.95 81.39-24.8 83.49-24.65 85.54-24.4 87.59-24.15 89.29-23.8L89.29-23.8 87.39-21.15Q84.64-21.25 82.47-21.33 80.29-21.4 78.99-21.4L78.99-21.4Q76.54-21.4 74.99-21.08 73.44-20.75 72.49-19.8 71.54-18.85 70.99-17 70.44-15.15 69.99-12.1L69.99-12.1Q69.44-8.5 69.52-6.55 69.59-4.6 70.42-3.85 71.24-3.1 72.89-3.1L72.89-3.1Q74.69-3.1 76.47-3.88 78.24-4.65 80.12-6.15 81.99-7.65 84.09-9.85L84.09-9.85 84.99-7.9Q83.74-5.65 81.74-3.73 79.74-1.8 77.24-0.6 74.74 0.6 71.89 0.6L71.89 0.6Q69.29 0.6 67.64-0.58 65.99-1.75 65.47-4.6 64.94-7.45 65.69-12.45L65.69-12.45Q66.29-16.6 67.29-19.07 68.29-21.55 69.74-22.83 71.19-24.1 73.09-24.53 74.99-24.95 77.39-24.95ZM111.84-24.95L111.84-24.95Q114.89-24.95 116.47-23.25 118.04-21.55 117.59-18.2L117.59-18.2 114.99 0 110.74 0 113.19-17.15Q113.49-19.55 112.89-20.45 112.29-21.35 110.54-21.35L110.54-21.35Q108.14-21.35 105.64-19.83 103.14-18.3 99.69-15.55L99.69-15.55 99.74-18.7Q103.19-21.8 106.12-23.38 109.04-24.95 111.84-24.95ZM98.54-35L102.79-35 101.44-25.2Q101.19-23.2 100.77-21.18 100.34-19.15 99.94-18L99.94-18 100.24-17.3 97.84 0 93.59 0 98.54-35ZM128.79-31.55L132.99-31.55 129.49-6.6Q129.24-4.85 129.84-4.15 130.44-3.45 132.19-3.45L132.19-3.45 135.99-3.45 136.14-0.2Q135.34 0 134.26 0.15 133.19 0.3 132.21 0.38 131.24 0.45 130.69 0.45L130.69 0.45Q127.54 0.45 126.14-1.3 124.74-3.05 125.19-6.2L125.19-6.2 128.79-31.55ZM128.04-24.35L139.74-24.35 139.24-21 122.84-21 123.24-24.1 128.04-24.35ZM155.28-24.95L155.28-24.95Q159.14-24.95 161.24-24.08 163.34-23.2 164.06-21.45 164.79-19.7 164.34-17.15L164.34-17.15Q163.94-14.8 162.86-13.4 161.79-12 159.89-11.3 157.99-10.6 155.09-10.35L155.09-10.35 143.24-9.25 143.69-12.45 155.03-13.55Q156.69-13.7 157.71-14.08 158.74-14.45 159.31-15.28 159.89-16.1 160.14-17.5L160.14-17.5Q160.44-19.35 159.89-20.18 159.34-21 158.03-21.2 156.74-21.4 154.74-21.4L154.74-21.4Q152.74-21.4 151.34-21.05 149.94-20.7 148.99-19.78 148.03-18.85 147.44-17.15 146.84-15.45 146.39-12.7L146.39-12.7Q145.78-8.65 146.34-6.55 146.89-4.45 148.46-3.73 150.03-3 152.59-3L152.59-3Q153.94-3 155.51-3.08 157.09-3.15 158.64-3.3 160.19-3.45 161.54-3.6L161.54-3.6 161.84-0.75Q160.59-0.25 158.79 0.05 156.99 0.35 155.16 0.48 153.34 0.6 151.89 0.6L151.89 0.6Q147.69 0.6 145.31-0.83 142.94-2.25 142.16-5.23 141.39-8.2 141.99-12.75L141.99-12.75Q142.49-16.35 143.44-18.73 144.39-21.1 145.94-22.45 147.49-23.8 149.78-24.38 152.09-24.95 155.28-24.95ZM186.43-24.95L186.43-24.95Q188.48-24.95 189.86-24.2 191.23-23.45 191.86-21.95 192.48-20.45 192.18-18.2L192.18-18.2 189.58 0 185.33 0 187.78-17.15Q188.08-19.55 187.48-20.45 186.88-21.35 185.13-21.35L185.13-21.35Q182.73-21.35 180.23-19.83 177.73-18.3 174.28-15.6L174.28-15.6 174.33-18.7Q177.78-21.8 180.71-23.38 183.63-24.95 186.43-24.95ZM171.63-24.35L175.03-24.35 174.63-18.05 174.83-17.3 172.43 0 168.18 0 171.63-24.35ZM200.73-24.35L204.93-24.35 201.53 0 197.33 0 200.73-24.35ZM203.18-34.7L205.18-34.7Q205.88-34.7 206.18-34.3 206.48-33.9 206.38-33.3L206.38-33.3 206.03-30.45Q205.83-29.25 204.63-29.25L204.63-29.25 202.68-29.25Q201.28-29.25 201.43-30.65L201.43-30.65 201.83-33.45Q201.98-34.7 203.18-34.7L203.18-34.7ZM227.63-24.95L227.63-24.95Q229.68-24.95 231.05-24.2 232.43-23.45 233.05-21.95 233.68-20.45 233.38-18.2L233.38-18.2 230.78 0 226.53 0 228.98-17.15Q229.28-19.55 228.68-20.45 228.08-21.35 226.33-21.35L226.33-21.35Q223.93-21.35 221.43-19.83 218.93-18.3 215.48-15.6L215.48-15.6 215.53-18.7Q218.98-21.8 221.9-23.38 224.83-24.95 227.63-24.95ZM212.83-24.35L216.23-24.35 215.83-18.05 216.03-17.3 213.63 0 209.38 0 212.83-24.35ZM255.98-6.4L258.53-23.8 262.83-23.8 259.43-0.45Q259.13 2 258.18 4 257.23 6 255.55 7.45 253.88 8.9 251.4 9.68 248.93 10.45 245.58 10.55L245.58 10.55Q244.93 10.55 243.45 10.53 241.98 10.5 240.3 10.3 238.63 10.1 237.28 9.75L237.28 9.75 237.73 6.9Q238.78 6.95 239.88 6.98 240.98 7 242.38 7 243.78 7 245.63 6.95L245.63 6.95Q249.18 6.85 251.83 5.4 254.48 3.95 255.13 0.4L255.13 0.4Q255.53-1.35 255.9-2.95 256.28-4.55 257.13-5.9L257.13-5.9 255.98-6.4ZM250.83-24.95L250.83-24.95Q252.73-24.95 254.83-24.8 256.93-24.65 258.98-24.4 261.03-24.15 262.73-23.8L262.73-23.8 260.83-21.15Q258.08-21.25 255.9-21.33 253.73-21.4 252.43-21.4L252.43-21.4Q249.98-21.4 248.43-21.08 246.88-20.75 245.93-19.8 244.98-18.85 244.43-17 243.88-15.15 243.43-12.1L243.43-12.1Q242.88-8.5 242.95-6.55 243.03-4.6 243.85-3.85 244.68-3.1 246.33-3.1L246.33-3.1Q248.13-3.1 249.9-3.88 251.68-4.65 253.55-6.15 255.43-7.65 257.53-9.85L257.53-9.85 258.43-7.9Q257.18-5.65 255.18-3.73 253.18-1.8 250.68-0.6 248.18 0.6 245.33 0.6L245.33 0.6Q242.73 0.6 241.08-0.58 239.43-1.75 238.9-4.6 238.38-7.45 239.13-12.45L239.13-12.45Q239.73-16.6 240.73-19.07 241.73-21.55 243.18-22.83 244.63-24.1 246.53-24.53 248.43-24.95 250.83-24.95ZM289.62-34.55L289.62-34.55Q292.17-34.55 294.72-34.55 297.27-34.55 299.75-34.48 302.22-34.4 304.52-34.25L304.52-34.25 303.92-30.8 290.17-30.8Q288.47-30.8 287.67-30 286.87-29.2 286.62-27.4L286.62-27.4 283.82-6.95Q283.57-5.25 284.22-4.48 284.87-3.7 286.57-3.7L286.57-3.7 300.07-3.7 299.97-0.25Q297.77-0.1 295.42-0.05 293.07 0 290.69 0.03 288.32 0.05 286.02 0.05L286.02 0.05Q282.22 0.05 280.55-1.8 278.87-3.65 279.32-6.85L279.32-6.85 282.37-28.65Q282.77-31.45 284.6-33 286.42-34.55 289.62-34.55ZM281.57-16.5L282.07-19.9 300.42-19.9 299.97-16.5 281.57-16.5ZM324.32-24.95L324.32-24.95Q326.37-24.95 327.74-24.2 329.12-23.45 329.74-21.95 330.37-20.45 330.07-18.2L330.07-18.2 327.47 0 323.22 0 325.67-17.15Q325.97-19.55 325.37-20.45 324.77-21.35 323.02-21.35L323.02-21.35Q320.62-21.35 318.12-19.83 315.62-18.3 312.17-15.6L312.17-15.6 312.22-18.7Q315.67-21.8 318.59-23.38 321.52-24.95 324.32-24.95ZM309.52-24.35L312.92-24.35 312.52-18.05 312.72-17.3 310.32 0 306.07 0 309.52-24.35ZM348.91-24.95L348.91-24.95Q352.76-24.95 354.86-24.08 356.96-23.2 357.69-21.45 358.41-19.7 357.96-17.15L357.96-17.15Q357.56-14.8 356.49-13.4 355.41-12 353.51-11.3 351.61-10.6 348.71-10.35L348.71-10.35 336.86-9.25 337.31-12.45 348.66-13.55Q350.31-13.7 351.34-14.08 352.36-14.45 352.94-15.28 353.51-16.1 353.76-17.5L353.76-17.5Q354.06-19.35 353.51-20.18 352.96-21 351.66-21.2 350.36-21.4 348.36-21.4L348.36-21.4Q346.36-21.4 344.96-21.05 343.56-20.7 342.61-19.78 341.66-18.85 341.06-17.15 340.46-15.45 340.01-12.7L340.01-12.7Q339.41-8.65 339.96-6.55 340.51-4.45 342.09-3.73 343.66-3 346.21-3L346.21-3Q347.56-3 349.14-3.08 350.71-3.15 352.26-3.3 353.81-3.45 355.16-3.6L355.16-3.6 355.46-0.75Q354.21-0.25 352.41 0.05 350.61 0.35 348.79 0.48 346.96 0.6 345.51 0.6L345.51 0.6Q341.31 0.6 338.94-0.83 336.56-2.25 335.79-5.23 335.01-8.2 335.61-12.75L335.61-12.75Q336.11-16.35 337.06-18.73 338.01-21.1 339.56-22.45 341.11-23.8 343.41-24.38 345.71-24.95 348.91-24.95ZM365.26-24.35L368.51-24.35 368.11-17.65 368.41-16.9 366.06 0 361.81 0 365.26-24.35ZM379.36-24.95L380.61-24.95 379.56-20.95 378.31-20.95Q376.11-20.95 373.74-19.53 371.36-18.1 367.91-15.5L367.91-15.5 367.71-18.25Q370.86-21.45 373.81-23.2 376.76-24.95 379.36-24.95L379.36-24.95ZM398.91-6.4L401.46-23.8 405.76-23.8 402.36-0.45Q402.06 2 401.11 4 400.16 6 398.48 7.45 396.81 8.9 394.33 9.68 391.86 10.45 388.51 10.55L388.51 10.55Q387.86 10.55 386.38 10.53 384.91 10.5 383.23 10.3 381.56 10.1 380.21 9.75L380.21 9.75 380.66 6.9Q381.71 6.95 382.81 6.98 383.91 7 385.31 7 386.71 7 388.56 6.95L388.56 6.95Q392.11 6.85 394.76 5.4 397.41 3.95 398.06 0.4L398.06 0.4Q398.46-1.35 398.83-2.95 399.21-4.55 400.06-5.9L400.06-5.9 398.91-6.4ZM393.76-24.95L393.76-24.95Q395.66-24.95 397.76-24.8 399.86-24.65 401.91-24.4 403.96-24.15 405.66-23.8L405.66-23.8 403.76-21.15Q401.01-21.25 398.83-21.33 396.66-21.4 395.36-21.4L395.36-21.4Q392.91-21.4 391.36-21.08 389.81-20.75 388.86-19.8 387.91-18.85 387.36-17 386.81-15.15 386.36-12.1L386.36-12.1Q385.81-8.5 385.88-6.55 385.96-4.6 386.78-3.85 387.61-3.1 389.26-3.1L389.26-3.1Q391.06-3.1 392.83-3.88 394.61-4.65 396.48-6.15 398.36-7.65 400.46-9.85L400.46-9.85 401.36-7.9Q400.11-5.65 398.11-3.73 396.11-1.8 393.61-0.6 391.11 0.6 388.26 0.6L388.26 0.6Q385.66 0.6 384.01-0.58 382.36-1.75 381.83-4.6 381.31-7.45 382.06-12.45L382.06-12.45Q382.66-16.6 383.66-19.07 384.66-21.55 386.11-22.83 387.56-24.1 389.46-24.53 391.36-24.95 393.76-24.95ZM429.96-24.35L434.36-24.35Q433.86-22.2 433.33-20.15 432.81-18.1 432.16-16.07 431.51-14.05 430.73-12.05 429.96-10.05 429.03-8.08 428.11-6.1 426.96-4.05L426.96-4.05Q424.31 0.9 421.81 3.83 419.31 6.75 416.63 8.22 413.96 9.7 410.76 10.3L410.76 10.3 409.96 7.25Q411.86 6.8 413.56 5.98 415.26 5.15 416.88 3.75 418.51 2.35 420.08 0.13 421.66-2.1 423.26-5.3L423.26-5.3Q424.81-8.35 426.03-11.25 427.26-14.15 428.23-17.32 429.21-20.5 429.96-24.35L429.96-24.35ZM410.41-24.35L414.86-24.35 418.71-4.3Q418.96-3.35 419.86-3.35L419.86-3.35 422.71-3.35 420.76 0 417.96 0Q416.86 0 416.11-0.63 415.36-1.25 415.11-2.25L415.11-2.25 410.41-24.35ZM453.25-34.5L457.7-34.5 452.85 0 448.4 0 453.25-34.5ZM455.3-20.3L472.1-20.3 471.6-16.5 454.75-16.5 455.3-20.3ZM473.6-34.5L477.95-34.5 473.1 0 468.75 0 473.6-34.5ZM494.8-24.95L494.8-24.95Q498.9-24.95 501.3-23.68 503.7-22.4 504.52-19.55 505.35-16.7 504.65-11.95L504.65-11.95Q504-7.35 502.52-4.58 501.05-1.8 498.43-0.58 495.8 0.65 491.7 0.65L491.7 0.65Q487.65 0.65 485.22-0.63 482.8-1.9 481.95-4.75 481.1-7.6 481.75-12.3L481.75-12.3Q482.4-16.9 483.88-19.68 485.35-22.45 488-23.7 490.65-24.95 494.8-24.95ZM494.8-21.35L494.8-21.35Q492.1-21.35 490.4-20.55 488.7-19.75 487.72-17.73 486.75-15.7 486.2-11.95L486.2-11.95Q485.7-8.5 486.02-6.53 486.35-4.55 487.72-3.75 489.1-2.95 491.7-2.95L491.7-2.95Q494.45-2.95 496.15-3.8 497.85-4.65 498.82-6.7 499.8-8.75 500.3-12.3L500.3-12.3Q500.8-15.85 500.47-17.8 500.15-19.75 498.77-20.55 497.4-21.35 494.8-21.35ZM512.85-24.35L516.1-24.35 515.7-17.65 516-16.9 513.65 0 509.4 0 512.85-24.35ZM526.95-24.95L528.2-24.95 527.15-20.95 525.9-20.95Q523.7-20.95 521.32-19.53 518.95-18.1 515.5-15.5L515.5-15.5 515.3-18.25Q518.45-21.45 521.4-23.2 524.35-24.95 526.95-24.95L526.95-24.95ZM532.94-24.35L537.14-24.35 533.75 0 529.54 0 532.94-24.35ZM535.39-34.7L537.39-34.7Q538.09-34.7 538.39-34.3 538.69-33.9 538.59-33.3L538.59-33.3 538.25-30.45Q538.04-29.25 536.84-29.25L536.84-29.25 534.89-29.25Q533.5-29.25 533.64-30.65L533.64-30.65 534.04-33.45Q534.19-34.7 535.39-34.7L535.39-34.7ZM540.59-3.45L558.54-20.9 563.44-20.85 545.49-3.4 540.59-3.45ZM540.64-3.45L561.14-3.45 560.64 0 540.14 0 540.64-3.45ZM543.74-24.35L563.89-24.35 563.39-20.85 543.29-20.85 543.74-24.35ZM580.34-24.95L580.34-24.95Q584.44-24.95 586.84-23.68 589.24-22.4 590.06-19.55 590.89-16.7 590.19-11.95L590.19-11.95Q589.54-7.35 588.06-4.58 586.59-1.8 583.96-0.58 581.34 0.65 577.24 0.65L577.24 0.65Q573.19 0.65 570.76-0.63 568.34-1.9 567.49-4.75 566.64-7.6 567.29-12.3L567.29-12.3Q567.94-16.9 569.41-19.68 570.89-22.45 573.54-23.7 576.19-24.95 580.34-24.95ZM580.34-21.35L580.34-21.35Q577.64-21.35 575.94-20.55 574.24-19.75 573.26-17.73 572.29-15.7 571.74-11.95L571.74-11.95Q571.24-8.5 571.56-6.53 571.89-4.55 573.26-3.75 574.64-2.95 577.24-2.95L577.24-2.95Q579.99-2.95 581.69-3.8 583.39-4.65 584.36-6.7 585.34-8.75 585.84-12.3L585.84-12.3Q586.34-15.85 586.01-17.8 585.69-19.75 584.31-20.55 582.94-21.35 580.34-21.35ZM613.19-24.95L613.19-24.95Q615.24-24.95 616.61-24.2 617.99-23.45 618.61-21.95 619.24-20.45 618.94-18.2L618.94-18.2 616.34 0 612.09 0 614.54-17.15Q614.84-19.55 614.24-20.45 613.64-21.35 611.89-21.35L611.89-21.35Q609.49-21.35 606.99-19.83 604.49-18.3 601.04-15.6L601.04-15.6 601.09-18.7Q604.54-21.8 607.46-23.38 610.39-24.95 613.19-24.95ZM598.39-24.35L601.79-24.35 601.39-18.05 601.59-17.3 599.19 0 594.94 0 598.39-24.35ZM635.28-24.95L635.28-24.95Q636.98-24.95 638.83-24.83 640.68-24.7 642.41-24.55 644.13-24.4 645.53-24.2L645.53-24.2 644.98-21.15Q642.68-21.25 640.38-21.3 638.08-21.35 635.38-21.4L635.38-21.4Q633.28-21.4 631.98-21.28 630.68-21.15 630.03-20.63 629.38-20.1 629.23-18.9L629.23-18.9Q629.03-17.4 629.83-16.73 630.63-16.05 632.18-15.35L632.18-15.35 638.98-12.35Q640.88-11.55 642.03-10.68 643.18-9.8 643.63-8.58 644.08-7.35 643.83-5.45L643.83-5.45Q643.48-2.75 642.06-1.48 640.63-0.2 638.23 0.18 635.83 0.55 632.43 0.55L632.43 0.55Q630.08 0.55 628.71 0.45 627.33 0.35 626.13 0.2 624.93 0.05 623.13-0.15L623.13-0.15 623.63-3.25Q624.83-3.15 626.18-3.1 627.53-3.05 628.88-3.03 630.23-3 631.43-3L631.43-3Q634.53-3.05 636.23-3.28 637.93-3.5 638.71-4.1 639.48-4.7 639.68-5.85L639.68-5.85Q639.83-6.9 639.48-7.45 639.13-8 638.38-8.38 637.63-8.75 636.53-9.25L636.53-9.25 629.73-12.25Q628.03-13.05 626.91-13.95 625.78-14.85 625.33-16.13 624.88-17.4 625.08-19.2L625.08-19.2Q625.38-21.6 626.61-22.85 627.83-24.1 630.01-24.55 632.18-25 635.28-24.95Z" opacity="1" transform="matrix(1,0,0,1,0,0)" fill="#000000" class="slogan-text-1" data-fill-palette-color="secondary" id="text-1"></path></svg></g></svg></g></svg></g></svg></g></svg></g></svg></g></svg></g><g mask="url(#ce5d2dc2-3396-4e69-bb52-3765bd3fd289)"><g transform="matrix(2.7391319652597232, 0, 0, 2.7391319652597232, 105.03989993003628, 1)"><svg xmlns="http://www.w3.org/2000/svg" xmlns:xlink="http://www.w3.org/1999/xlink" version="1.0" x="0" y="0" viewBox="15.5359373 5.1528473 67.7003527 89.5174103" enable-background="new 0 0 100 100" xml:space="preserve" height="89.5174103" width="67.7003527" class="icon-none" data-fill-palette-color="accent" id="none"><polygon points="65.242836,5.1528473 15.5359373,55.9843407 50.8480797,51.2610588 26.5569248,94.6702576 83.23629,36.6413841   49.7234917,36.6413841 " fill="#ffa31d" data-fill-palette-color="accent"></polygon></svg></g></g></svg></g><defs></defs></svg><rect width="395.52" height="247.2" fill="none" stroke="none" visibility="hidden"></rect></g></svg></g></svg>