<svg xmlns="http://www.w3.org/2000/svg" version="1.1" xmlns:xlink="http://www.w3.org/1999/xlink" xmlns:svgjs="http://svgjs.dev/svgjs" width="1500" height="935" viewBox="0 0 1500 935"><g transform="matrix(1,0,0,1,-0.9090909090909918,0.3785425101214628)"><svg viewBox="0 0 396 247" data-background-color="#ffffff" preserveAspectRatio="xMidYMid meet" height="935" width="1500" xmlns="http://www.w3.org/2000/svg" xmlns:xlink="http://www.w3.org/1999/xlink"><g id="tight-bounds" transform="matrix(1,0,0,1,0.2400000000000091,-0.09999999999999432)"><svg viewBox="0 0 395.52 247.2" height="247.2" width="395.52"><g><svg></svg></g><g><svg viewBox="0 0 395.52 247.2" height="247.2" width="395.52"><mask id="d3720c0a-0d7f-44be-80d9-e486fea221c2"><rect width="640" height="400" fill="white"></rect><g transform="matrix(1,0,0,1,140.7758499931063,65.92)"><svg viewBox="0 0 113.96830001378737 115.35999999999999" height="115.35999999999999" width="113.96830001378737"><g><svg viewBox="0 0 113.96830001378737 115.35999999999999" height="115.35999999999999" width="113.96830001378737"><g><svg viewBox="0 0 113.96830001378738 115.36" height="115.35999999999999" width="113.96830001378737"><g><svg viewBox="0 0 113.96830001378738 115.36" height="115.36" width="113.96830001378738"><g id="SvgjsG1065"><svg viewBox="0 0 113.96830001378738 115.36" height="115.36" width="113.96830001378738" id="SvgjsSvg1064"><g><svg viewBox="0 0 113.96830001378738 115.36" height="115.36" width="113.96830001378738"><g transform="matrix(1,0,0,1,0,0)"><svg width="113.96830001378738" viewBox="-1 -39.01 42.99 43.5" height="115.36" data-palette-color="#000000"><path d="M37.99-35.01L37.99-10.01Q37.99-7.84 37.17-5.92 36.35-4 34.92-2.58 33.5-1.15 31.58-0.33 29.66 0.49 27.49 0.49L27.49 0.49Q25.54 0.49 23.74-0.2 21.95-0.88 20.51-2.2L20.51-2.2Q19.07-0.88 17.26-0.2 15.45 0.49 13.5 0.49L13.5 0.49Q11.33 0.49 9.41-0.33 7.5-1.15 6.07-2.58 4.64-4 3.82-5.92 3-7.84 3-10.01L3-10.01 3-35.01 10.01-35.01 10.01-10.01Q10.01-9.28 10.28-8.63 10.55-7.98 11.02-7.51 11.5-7.03 12.13-6.76 12.77-6.49 13.5-6.49L13.5-6.49Q14.23-6.49 14.87-6.76 15.5-7.03 15.98-7.51 16.46-7.98 16.72-8.63 16.99-9.28 16.99-10.01L16.99-10.01 16.99-35.01 24-35.01 24-10.01Q24-9.28 24.27-8.63 24.54-7.98 25.01-7.51 25.49-7.03 26.12-6.76 26.76-6.49 27.49-6.49L27.49-6.49Q28.22-6.49 28.86-6.76 29.49-7.03 29.97-7.51 30.44-7.98 30.73-8.63 31.01-9.28 31.01-10.01L31.01-10.01 31.01-35.01 37.99-35.01Z" opacity="1" transform="matrix(1,0,0,1,0,0)" fill="black" class="wordmark-text-0" id="SvgjsPath1063" stroke-width="7" stroke="black" stroke-linejoin="round"></path></svg></g></svg></g></svg></g></svg></g></svg></g></svg></g></svg></g></mask><g transform="matrix(1,0,0,1,140.7758499931063,65.92)"><svg viewBox="0 0 113.96830001378737 115.35999999999999" height="115.35999999999999" width="113.96830001378737"><g><svg viewBox="0 0 113.96830001378737 115.35999999999999" height="115.35999999999999" width="113.96830001378737"><g><svg viewBox="0 0 113.96830001378738 115.36" height="115.35999999999999" width="113.96830001378737"><g><svg viewBox="0 0 113.96830001378738 115.36" height="115.36" width="113.96830001378738"><g id="textblocktransform"><svg viewBox="0 0 113.96830001378738 115.36" height="115.36" width="113.96830001378738" id="textblock"><g><svg viewBox="0 0 113.96830001378738 115.36" height="115.36" width="113.96830001378738"><g transform="matrix(1,0,0,1,0,0)"><svg width="113.96830001378738" viewBox="-1 -39.01 42.99 43.5" height="115.36" data-palette-color="#000000"><path d="M37.99-35.01L37.99-10.01Q37.99-7.84 37.17-5.92 36.35-4 34.92-2.58 33.5-1.15 31.58-0.33 29.66 0.49 27.49 0.49L27.49 0.49Q25.54 0.49 23.74-0.2 21.95-0.88 20.51-2.2L20.51-2.2Q19.07-0.88 17.26-0.2 15.45 0.49 13.5 0.49L13.5 0.49Q11.33 0.49 9.41-0.33 7.5-1.15 6.07-2.58 4.64-4 3.82-5.92 3-7.84 3-10.01L3-10.01 3-35.01 10.01-35.01 10.01-10.01Q10.01-9.28 10.28-8.63 10.55-7.98 11.02-7.51 11.5-7.03 12.13-6.76 12.77-6.49 13.5-6.49L13.5-6.49Q14.23-6.49 14.87-6.76 15.5-7.03 15.98-7.51 16.46-7.98 16.72-8.63 16.99-9.28 16.99-10.01L16.99-10.01 16.99-35.01 24-35.01 24-10.01Q24-9.28 24.27-8.63 24.54-7.98 25.01-7.51 25.49-7.03 26.12-6.76 26.76-6.49 27.49-6.49L27.49-6.49Q28.22-6.49 28.86-6.76 29.49-7.03 29.97-7.51 30.44-7.98 30.73-8.63 31.01-9.28 31.01-10.01L31.01-10.01 31.01-35.01 37.99-35.01Z" opacity="1" transform="matrix(1,0,0,1,0,0)" fill="#000000" class="wordmark-text-0" data-fill-palette-color="primary" id="text-0"></path></svg></g></svg></g></svg></g></svg></g></svg></g></svg></g></svg></g><g mask="url(#d3720c0a-0d7f-44be-80d9-e486fea221c2)"><g transform="matrix(2.7391319652597232, 0, 0, 2.7391319652597232, 105.03989993003628, 1)"><svg xmlns="http://www.w3.org/2000/svg" xmlns:xlink="http://www.w3.org/1999/xlink" version="1.0" x="0" y="0" viewBox="15.5359373 5.1528473 67.7003527 89.5174103" enable-background="new 0 0 100 100" xml:space="preserve" height="89.5174103" width="67.7003527" class="icon-none" data-fill-palette-color="accent" id="none"><polygon points="65.242836,5.1528473 15.5359373,55.9843407 50.8480797,51.2610588 26.5569248,94.6702576 83.23629,36.6413841   49.7234917,36.6413841 " fill="#ffa31d" data-fill-palette-color="accent"></polygon></svg></g></g></svg></g><defs></defs></svg><rect width="395.52" height="247.2" fill="none" stroke="none" visibility="hidden"></rect></g></svg></g></svg>